<svg width="14" height="15" viewBox="0 0 14 15" fill="none" xmlns="http://www.w3.org/2000/svg">
<path d="M6.99998 0L13.4773 3.75V11.25L6.99998 15L0.522705 11.25V3.75L6.99998 0ZM6.99998 9.54545C7.54247 9.54545 8.06274 9.32995 8.44633 8.94635C8.82993 8.56276 9.04543 8.04249 9.04543 7.5C9.04543 6.95751 8.82993 6.43724 8.44633 6.05365C8.06274 5.67005 7.54247 5.45455 6.99998 5.45455C6.45749 5.45455 5.93722 5.67005 5.55362 6.05365C5.17003 6.43724 4.95452 6.95751 4.95452 7.5C4.95452 8.04249 5.17003 8.56276 5.55362 8.94635C5.93722 9.32995 6.45749 9.54545 6.99998 9.54545Z" fill="#2AE881"/>
</svg>
