<svg width="12" height="13" viewBox="0 0 12 13" fill="none" xmlns="http://www.w3.org/2000/svg">
<path d="M1.39583 0C0.8 0 0.3125 0.4875 0.3125 1.08333V11.9167C0.3125 12.5125 0.8 13 1.39583 13H10.6042C11.2 13 11.6875 12.5125 11.6875 11.9167V1.08333C11.6875 0.4875 11.2 0 10.6042 0H1.39583ZM3.5625 11.375H1.9375V9.75H3.5625V11.375ZM3.5625 9.20833H1.9375V7.58333H3.5625V9.20833ZM3.5625 7.04167H1.9375V5.41667H3.5625V7.04167ZM5.72917 11.375H4.10417V9.75H5.72917V11.375ZM5.72917 9.20833H4.10417V7.58333H5.72917V9.20833ZM5.72917 7.04167H4.10417V5.41667H5.72917V7.04167ZM7.89583 11.375H6.27083V9.75H7.89583V11.375ZM7.89583 9.20833H6.27083V7.58333H7.89583V9.20833ZM7.89583 7.04167H6.27083V5.41667H7.89583V7.04167ZM10.0625 11.375H8.4375V7.58333H10.0625V11.375ZM10.0625 7.04167H8.4375V5.41667H10.0625V7.04167ZM10.0625 4.33333H1.9375V1.625H10.0625V4.33333Z" fill="#2AE881"/>
</svg>
